<svg viewBox="0 0 56 72" xmlns="http://www.w3.org/2000/svg">
  <!-- Body -->
  <path d="M28 4C14 4 6 16 6 30v26c0 2 1 3 3 3 2 0 3-2 3-4v-4c0-2 1-3 3-3s3 1 3 3v4c0 2 1 4 3 4s3-2 3-4v-4c0-2 1-3 3-3s3 1 3 3v4c0 2 1 4 3 4s3-2 3-4v-4c0-2 1-3 3-3s3 1 3 3v4c0 2 1 4 3 4s3-1 3-3V30C50 16 42 4 28 4z"
        fill="#e8e8f0" stroke="#b0b0c0" stroke-width="1.5"/>
  <!-- Left eye -->
  <ellipse cx="20" cy="28" rx="4" ry="5" fill="#2a2a3a" class="eye eye-left"/>
  <!-- Right eye -->
  <ellipse cx="36" cy="28" rx="4" ry="5" fill="#2a2a3a" class="eye eye-right"/>
  <!-- Blush -->
  <circle cx="14" cy="34" r="3" fill="#ffb3c6" opacity="0.5"/>
  <circle cx="42" cy="34" r="3" fill="#ffb3c6" opacity="0.5"/>
</svg>
